<svg xmlns="http://www.w3.org/2000/svg" xmlns:xlink="http://www.w3.org/1999/xlink" version="1.1" x="0px" y="0px" viewBox="0 0 100 100" enable-background="new 0 0 100 100" xml:space="preserve"><g><path d="M87.885,18.592c-14.359-19.689-30.857-2.92-30.857-2.92C55.27,26.215,78.08,50.578,86.357,41.336   C96.211,30.337,87.885,18.592,87.885,18.592z"></path><path d="M54.277,19.949c-3.972,10.388-0.426,17.417,5.549,23.648c7.207,7.517,19.199,2.017,19.199,2.017   C58.479,40.878,54.277,19.949,54.277,19.949z"></path><path d="M51.221,31.407L8.829,79.07c0.96,9.891,10.617,11.916,10.617,11.916l49.802-42.299   C55.576,48.517,51.221,31.407,51.221,31.407z"></path></g></svg>